<?xml version="1.0" encoding="UTF-8"?>
<svg width="600" height="300" version="1.1" viewBox="0 0 600 300" xmlns="http://www.w3.org/2000/svg" xmlns:cc="http://creativecommons.org/ns#" xmlns:dc="http://purl.org/dc/elements/1.1/" xmlns:rdf="http://www.w3.org/1999/02/22-rdf-syntax-ns#">
 <metadata>
  <rdf:RDF>
   <cc:Work rdf:about="">
    <dc:format>image/svg+xml</dc:format>
    <dc:type rdf:resource="http://purl.org/dc/dcmitype/StillImage"/>
    <dc:title/>
   </cc:Work>
  </rdf:RDF>
 </metadata>
 <g transform="translate(636.74 378.1)">
  <g transform="matrix(2.0607 0 0 2.0607 767.59 9.1581)" fill-rule="evenodd">
   <path d="m-489.08-169.74c-10.705-0.40381-10.438-0.67704-15.383-1.1082-0.32636 4.5904 1.3101 5.8609 8.7872 7.0251 7.4771 1.1642 22.825 1.8329 33.463 6.1355-2.6001 13.837-10.432 26.739-18.999 36.783-1.8497 2.1687-1.87 4.978-2.1341 0.70373-0.80186-9.0318-1.5064-19.559-8.4314-26.141-5.0239-4.7749-14.044-1.1414-16.102 5.4132-2.2336 7.1168-1.6148 14.82-4.7532 21.717-0.99149-4.3637-4.9558-7.9297-10.003-6.1023-3.7332 1.3516-7.467-3.0043-11.3-0.5924-0.0382-12.313-0.25656-24.938-5.6029-36.592-1.2433-2.7101-3.5669-7.5283-7.3936-8.3792-2.0889-0.46451-5.0865-0.68806-6.7219 0.8624 2.0934 3.1278 4.2164 6.4275 5.0152 10.249 2.3125 11.064 0.35496 22.391-0.0937 33.523-2.3851 0.18017-3.713 2.3913-5.5512 3.6078-1.7224-2.5667-4.9641-3.2182-7.8543-3.3327-1.6611-4.5156-9.5646-4.6851-10.794 0.20955-2.0153 0.95446-2.353-1.3784-2.0674-3.0567 0.73564-4.3228 0.9601-10.914-3.8778-13.032-4.4768-1.9594-10.582 1.6965-10.034 7.0473 0.19844 1.9388 0.90524 5.677-1.3168 6.3693-1.786 0.55645-2.9542 0.20705-3.4433 1.2894-0.94187-2.4931-3.5985-4.8349-3.9241-15.735-0.0988-3.3075-4.4469-7.0707-7.5725-4.477-3.335 2.7674-1.6381 7.6241-2.3892 11.419-1.1343 5.7314-3.8985 10.907-5.8137 16.361-1.9062 5.4283-0.20472 11.647-2.4351 17.08-7.281-2.3266-13.411-11.293-9.4431-18.492 3.7111-6.7339 5.6592-13.993 8.9756-20.886 2.2248-4.6239 6.0778-8.0563 9.1902-12.043 3.2196-4.1244 5.0954-9.5017 10.043-12.099 2.1785-1.1436 5.2212-1.5051 6.7692-3.1574-5.2622-3.6612-12.893-1.8389-20.778 1.4467-5.0752 2.1148-9.6972 5.321-14.023 8.6935-10.348 8.0673-14.741 21.091-21.885 31.749-2.46 3.6698-6.9397 8.244-2.8071 13.79-1.202 1.3952-1.723 4.0463-1.0788 7.0252 1.4022 6.4844 4.4203 3.4558 5.5498 9.6026 1.1444 6.2276 7.1911 12.068 12.774 15.852 7.3364 4.9734 15.792 7.9364 24.039 11.041 5.125 1.9291 10.788-2.5785 11.571-7.9504 0.45341-3.1125 3.513-4.6928 5.1736-7.0882 3.106-4.4806 0.95291-11.573-4.5155-14.177-2.9675-1.4131 0.77928-7.0174 2.061-9.424 0.61041 1.7415 0.85584 2.9417 2.9653 3.0537 2.3713 0.12593 2.4433 1.9104 2.5736 4.1018 0.65009 10.934 4.326 22.638-0.27923 33.062-1.4318 3.2412 2.3592 4.1751 4.622 4.068 2.8089-0.13304 4.2393-3.7761 4.9336-5.2399 3.2032-6.7534 6.9176-21.385 5.7224-32.528-0.3165-2.4871 2.2746 0.92376 3.7912 1.1184 2.6173 0.33596 4.766-1.0851 6.7692-1.7883 3.6311 0.21848 6.9985-1.8936 9.0874-4.7492 0.54097 3.1786 4.8909 3.47 4.5932 7.2176-0.91479 11.518-0.81929 23.364-4.5247 34.427-0.38547 1.1508-2.894 3.2775-9e-3 2.8391 3.352-0.50946 7.2449-0.64106 8.9353-4.179 5.1262-10.729 8.6028-22.175 10.43-33.893 2.0478 0.99211 4.3663 0.94896 6.5365 0.4584 1.1574 10.68-0.62274 21.743-4.8278 31.547-0.66295 1.5456-0.33902 3.0349 1.5686 2.6597 3.5268-0.69362 6.4841-2.4835 8.3352-5.7364 3.8039-6.6842 7.6654-14.229 9.3703-24.081 0.0709 3.1133 0.91656 5.0368 1.3576 6.5444 1.0467 3.5778 4.8377 8.5086 9.8001 7.4883 5.1724-1.0635 8.3882-5.8947 11.221-9.8148 3.151-4.36 4.9479-9.4749 6.3874-14.615 2.8096 4.1727 7.8729 5.3629 12.598 5.5593-0.23975 3.8019 0.39578 10.203 5.1815 10.502 1.743 0.10899 2.6038 0.33134 3.3932 1.9827 1.8969 3.9682 5.6412 9.7675 1.9686 13.397-3.3302 3.2915-8.943 2.0261-13.33 3.1221-6.1549 1.5377-12.502 0.88914-18.762 0.32049-6.1103-0.55505-12.491 1.7099-17.199 5.4646 2.8606 3.1595 7.6656 1.6055 11.433 2.4633 8.3418 1.8994 16.567 4.9936 25.336 3.5328 5.8639-0.97682 12.418-1.3574 17.891 2.0526 3.4774 2.1665 7.7557-1.5772 7.9089-5.6839 0.24572-6.5855 4.1352-13.337 2.0228-19.703-1.4399-4.3393 1.9394-2.0083 4.0394-1.1299 4.657 1.9481 11.05 2.8789 14.134-1.7072 6.11-9.0872 7.3337-20.504 7.7586-31.092 0.34864-8.6874-0.52965-18.288-5.6459-25.629-3.921-5.6258-12.264-3.1707-17.675-1.3062-3.1439 1.0834-6.1305 2.6973-8.9137 3.834 4.0307-8.0566 11.451-17.582 15.559-21.889 4.1086-4.3071 3.9868-6.2734 1.8538-8.2825-2.133-2.009-4.2265-1.8492-5.1553-1.7893-0.9288 0.06-37.941 3.2933-48.646 2.8894zm49.175 38.887c3.4931-0.1166 4.2508 4.3258 4.5729 6.9738 0.91168 7.4932 0.60271 15.42-2.149 22.551-0.90533 2.3462-3.3151 2.8814-5.6127 2.2175-3.8877-1.1234-7.826-2.1483-11.411-4.0309 0.28492-8.1363-0.64454-16.499 1.759-24.413 4.0734-1.697 8.3961-3.1501 12.84-3.2985zm-59.985 8.7731c2.8808 0.31979 2.758 3.9198 3.1131 6.867 0.41918 3.4794 0.38287 9.1361-3.5101 10.148-2.8361 0.73743-3.0896-3.9157-3.1564-6.0408-0.11243-3.5768 1.235-11.232 3.5534-10.974z" stroke="#000" stroke-linecap="round" stroke-linejoin="round" stroke-width="1.0984"/>
   <g fill="#fff">
    <path d="m-440.74-169.85c-6.4826-0.19856-34.072 4.3299-60.167 0.80922-1.9982 5.5271 37.207 3.5731 46.447 7.1963 1.681 0.65918-5.6563 14.174-9.3669 22.425 2.7352 0.66996 4.0585 1.1714 6.6783 0.71764 4.6133-7.7952 9.472-16.548 12.859-20.36 3.7446-4.2144 9.6478-10.204 4.1195-10.755-0.17835-0.0177-0.36724-0.0279-0.56983-0.0337zm-29.377 40.654c-4.1813 7.0887-7.662 11.316-10.18 13.269-0.95101 0.73723-1.3383 5.8694-0.65941 6.9701 2.4564 3.9827 6.0901 2.5826 10.016 3.6452 0.66534-3.006 0.79913-5.8623 0.8239-8.7575-0.31464-0.26993-1.7946-0.5198-2.2053-0.70053 0 0 1.4027-0.85538 2.2215-1.7932 0.16289-4.1085 0.21307-9.6072-0.0157-12.633zm10.054 37.999c-0.12591 0.01878-0.26786 0.05737-0.398 0.08223 4.5064 4.4727 5.4589 11.275 4.3398 16.549-0.97186 4.58-4.1032 6.1594-12.881 6.1345-10.047-0.02858-15.839 2.5776-25.262 0.83271-4.7728-0.88377-11.03-0.65408-13.015 0.8239-1.4542 1.0825 4.6152-0.85335 12 2.0017 17.95 6.9395 32.855-1.8238 40.439 3.5409 3.4354 2.43 3.7519-3.8601 5.569-16.155 0.36097-2.4422-1.0949-7.1804-2.4555-9.9603-3.9415-1.8881-4.333-2.7682-8.336-3.8493z" color="#000000" color-rendering="auto" image-rendering="auto" shape-rendering="auto" solid-color="#000000" style="isolation:auto;mix-blend-mode:normal"/>
    <path d="m-612.49-164.65c-4.6255 3.0802-9.5736 5.655-13.768 10.1-4.7961 5.0825-8.2233 12.076-12.078 18.357l-9.8264 16.014c-1.1199 1.8251-0.29375 5.1362 1.6854 7.3028-1.293 2.0609-1.8677 2.4859-1.8987 4.7888-0.0747 5.5406 4.0434 1.6251 5.3162 9.8346 0.52108 3.3609 1.9448 4.605 3.8216 7.1296 3.1954 4.2983 7.3393 6.8391 11.411 9.0549 5.7585 3.1335 10.75 4.3262 16.39 7.9641 2.0244 1.306 4.5625 1.5865 6.4899-0.06455 2.2528-1.9298 3.4733-5.3096 4.9278-8.2428 1.7778-3.5849 2.8809-1.6154 3.7764-5.8694 0.543-2.5797-0.73538-5.3798-2.4251-6.7485-1.7747-1.4375-3.5239-3.3602-4.2336-6.1235-0.76328-2.9719 0.19637-6.2463 1.7749-8.2334 0.7962-1.0023 2.0374-2.6167 1.8834-3.6557-0.32802-2.2135-0.85784-4.1918-0.60313-6.2808 0.29725-2.4381 0.85375-6.1426 0.23512-7.2166-1.0223-1.7748-2.4323-3.4258-2.649-5.7883-0.35339-3.8524 0.17487-7.7516-0.40092-11.577-0.15034-0.99886-1.3465-0.51181-1.5353 0.33706-0.22923 1.0304-0.3802 2.0975-0.58295 3.1402-2.2215 11.424-1.8237 13.903-5.8395 20.638-0.96075 1.6113-0.8143 19.943-4.2701 21.295-5.105 1.9973-14.058-5.2584-16.629-11.837-3.4033-8.7093 2.7512-15.972 3.7693-18.639 1.4626-3.8309 2.7067-7.8236 4.3783-11.481 1.6513-3.6134 3.6606-6.9084 6.0372-9.6276 5.539-6.3376 6.3125-10.881 13.001-15.523 4.7523-3.2984 9.2138-3.4725 6.7462-3.8138-1.2357-0.1709-9.8954 1.4317-14.904 4.7668z"/>
    <g shape-rendering="auto">
     <path d="m-592.19-119.4c0.7502-3.8769 0.74705-5.0806 2.4326-4.978 1.6856 0.10253 3.1569 0.66163 3.1569 0.66163s1.5196-7.214 1.2586-10.998c-0.26095-3.7839 1.058-2.6193 2.8852-3.1411 1.8272-0.5218 2.4255-0.15438 2.2125 7.6499-0.21308 7.8042-0.0187 8.7031-0.0187 8.7031 3.7276 0.3409 5.1008-0.43369 5.4874 1.5971 0.0674-1.1176 3e-3 -1.6937 1.0789-1.7627 1.4083-0.0903 2.5391-0.0425 3.3402-1.7569 0.80102-1.7144 1.5965-2.1821 2.6653-1.6593 1.0688 0.52279 0.26281 3.3684 1.7693 3.5877 1.5065 0.21935 6.5092-0.69606 7.0562 1.1927 0.54704 1.8888 0.73254 9.2744-0.62615 11.501-1.3587 2.2265-4.6713 1.7736-7.0608 1.4151-1.3312-0.19968-1.5083 3.1056-3.1711 2.3334-1.6628-0.77218-0.62271-2.7192-1.9715-2.732-1.3488-0.0128-3.256 0.67123-3.2288-0.99108 0.0272-1.6623 0.19152 1.5452-1.5159 1.9045s-3.1687-1.13-2.6693 2.5597 1.0021 20.866-0.89174 27.165c-1.8938 6.2993-3.508 10.76-5.3536 10.949-1.8456 0.18922 2.4535-5.8076 1.526-19.625-0.92755-13.817-1.3387-21.121-2.4246-22.267-1.0859-1.146-4.9383-0.17007-5.2425-3.1457-0.30418-2.9756-1.0953-6.0914-0.69434-8.1636z" color="#000000" color-rendering="auto" image-rendering="auto" solid-color="#000000" style="isolation:auto;mix-blend-mode:normal"/>
     <path d="m-549.06-168.8c-0.15529 0.79417 1.8926 3.8767 2.6282 6.1506 2.635 6.9595 2.4037 13.41 2.5731 21.063 0.13835 6.1039-0.0716 11.616-0.62573 18.046-0.0869 1.0085-0.91943 1.5136-1.6095 1.6965-0.73726 0.19835-1.4756-0.0216-2.168-0.21298-1.2839 0.26673-1.7154 2.0424-1.684 3.4828 0.072 3.3034-0.67658 6.727 0.0255 9.9442 0.92607 1.6002 2.8622 1.8945 4.3562 1.1223 0.85965 0.54322 0.39885 1.7663 0.42407 2.7843-0.088 8.4937 0.32523 15.598-1.0507 23.657-1.0447 6.1186-2.3001 8.381-4.8106 15.014-0.34263 0.90516 0.84256 1.1344 1.2512 0.44598 0.73114-0.94049 1.3057-2.0243 1.9574-3.0351 3.1077-5.4017 4.7239-10.441 6.0789-16.61 1.4224-6.7308 3.072-14.915 3.1652-22.032 0.60558-0.74427 1.401-0.071 2.0766-0.0123 0.61515 0.10689 1.2884 0.10739 1.8647-0.27974 1.1842 1.0505 1.9154 1.2911 2.6694 2.7881 0.79266 0.91617 2.1431 0.23135 2.733-0.78924 0.94361-1.1759 2.3428-1.802 3.6458-1.7354 0.90372 0.11308 1.4675 1.1058 1.547 2.1566 0.11829 1.5623 0.22488 4.9938 0.45306 6.4596 0.59104 4.6528 0.1815 9.4687-0.8175 14.2-0.95458 4.1121-2.754 10.24-5.3387 15.168-0.46548 0.88747 1.4584 0.29245 2.073-0.37723 4.9621-5.4069 7.8401-15.813 8.2301-21.079 0.31693-4.2797 0.6871-6.645 0.63055-10.647-0.0161-1.1422 0.26202-2.2732 0.83276-3.2367 0.66221-1.1178 1.1307-2.4065 1.1874-3.7989 0.13334-3.2714 0.0254-6.5538-0.52923-9.7033-0.20096-1.1411-0.45913-2.5961-1.387-3.0504-1.3161-0.64425-2.8389 0.0181-4.2565 0.13752-2.1622 0.18188-4.416 0.14023-6.3126-1.1278-0.99635-0.66617-2.501-0.27358-3.1553 1.063-0.28922 0.59086-0.50977 1.2345-0.54646 1.9038-0.69884 0.0246-0.56204-1.0365-0.82985-1.543-0.66378-1.2554-2.0993-1.2978-3.2906-0.92388-0.78062 0.24504-0.91193-1.1296-0.98705-1.8872-0.77819-7.848-0.0868-14.802-1.0298-22.254-0.96926-7.6597-1.9601-13.13-6.0443-19.199-0.99449-1.4776-3.5385-5.7506-3.9152-3.8238z" color="#000000" color-rendering="auto" image-rendering="auto" solid-color="#000000" style="isolation:auto;mix-blend-mode:normal"/>
     <path d="m-497.84-145.02c-2.9632 0.0439-5.2233 1.9473-6.7535 7.5173-1.8833 6.8554 0.45934 3.5055-2.4929 14.183-1.7199 6.2203-4.0088 13.875-2.4587 24.83 1.1425 8.075 3.6217 16.766 12.48 7.1296 12.235-13.309 12.162-30.247 9.9715-38.959-2.1905-8.7118-4.5379-13.573-8.5828-14.457-0.75842-0.16576-1.4801-0.25415-2.164-0.244zm-0.88531 18.154c0.0616 2.5e-4 0.12404 4e-3 0.18578 0.0118 4.058 0.53355 5.9911 8.256 5.7279 13.954-0.52482 11.361-6.942 17.411-10.176 9.3724-3.1834-7.9126 0.38072-23.353 4.2625-23.338z" color="#000000" color-rendering="auto" image-rendering="auto" solid-color="#000000" style="isolation:auto;mix-blend-mode:normal"/>
     <path d="m-434.62-143.21c-11.496 0.63486-19.5 9.2729-26.919 7.4034-4.0536-1.0216-5.6727 1.7234-5.4147 3.9867 1.0471 9.1833 0.91921 20.346-0.1944 31.89-0.40568 4.2053 2.1849 6.0754 6.1442 4.3735 4.3949-1.8892 9.667 5.3158 26.213 7.2242 11.694 1.3488 16.547-55.782 0.17039-54.878zm-3.8419 7.7688c11.016-2.3377 10.682 40.474 0.44853 38.824-6.2074-1.0009-18.353-4.2301-18.89-6.6613-1.3527-6.1277 0.0301-26.106 1.6311-26.515 1.7539-0.44815 8.2225-3.8248 16.81-5.6472z" color="#000000" color-rendering="auto" image-rendering="auto" solid-color="#000000" style="isolation:auto;mix-blend-mode:normal"/>
    </g>
   </g>
  </g>
 </g>
</svg>
